<?xml version="1.0" encoding="utf-8"?>
<!-- Generator: Adobe Illustrator 24.3.0, SVG Export Plug-In . SVG Version: 6.00 Build 0)  -->
<svg version="1.1" xmlns="http://www.w3.org/2000/svg" xmlns:xlink="http://www.w3.org/1999/xlink" x="0px" y="0px"
	 viewBox="0 0 512 512" style="enable-background:new 0 0 512 512;" xml:space="preserve">
<style type="text/css">
	.st0{clip-path:url(#SVGID_3_);}
	.st1{clip-path:url(#SVGID_13_);}
	.st2{fill:none;}
	.st3{fill-rule:evenodd;clip-rule:evenodd;}
	.st4{fill:#292723;}
	.st5{fill-rule:evenodd;clip-rule:evenodd;fill:#292723;}
</style>
<g id="Livello_1">
	<path class="st4" d="M29.8,176.2c-3.9-3.9-5.8-8-5.8-12.3c0-4.4,1.5-8.5,4.4-12.3l29-29c3.9-2.9,8.2-4.4,13.1-4.4
		c4.8,0,8.7,1.5,11.6,4.4l174,172.6l174-172.6c2.9-2.9,6.8-4.4,11.6-4.4c4.8,0,9.2,1.5,13.1,4.4l29,29c2.9,3.9,4.4,8,4.4,12.3
		c0,4.4-1.5,8.5-4.4,12.3L269.1,389.4c-3.9,2.9-8.2,4.4-13.1,4.4c-4.8,0-9.2-1.5-13.1-4.4h1.5L29.8,176.2z"/>
</g>
<g id="Livello_2">
</g>
</svg>
