<?xml version="1.0" encoding="utf-8"?>
<!-- Generator: Adobe Illustrator 24.3.0, SVG Export Plug-In . SVG Version: 6.00 Build 0)  -->
<svg version="1.1" xmlns="http://www.w3.org/2000/svg" xmlns:xlink="http://www.w3.org/1999/xlink" x="0px" y="0px"
	 viewBox="0 0 512 512" style="enable-background:new 0 0 512 512;" xml:space="preserve">
<style type="text/css">
	.st0{clip-path:url(#SVGID_3_);}
	.st1{clip-path:url(#SVGID_13_);}
	.st2{fill:none;}
	.st3{fill-rule:evenodd;clip-rule:evenodd;}
	.st4{fill:#292723;}
	.st5{fill-rule:evenodd;clip-rule:evenodd;fill:#292723;}
</style>
<g id="Livello_1">
	<g>
		<g>
			<path d="M461.2,410.1c3.8,3.8,5.8,8.5,5.8,14s-1.9,10.2-5.8,14l-23.1,23.1c-3.8,3.8-8.5,5.8-14,5.8s-10.2-1.9-14-5.8l-82.4-82.4
				c-3.8-3.8-5.8-8.5-5.8-14v-13.2c-30.8,24.2-65.9,36.3-105.5,36.3c-31.3,0-60-7.7-86.1-23.1s-46.8-36.1-62.2-62.2
				S45,247.8,45,216.4s7.7-60,23.1-86.1s36.1-46.8,62.2-62.2S185.1,45,216.4,45s60,7.7,86.1,23.1s46.8,36.1,62.2,62.2
				s23.1,54.8,23.1,86.1c0,39.6-12.1,74.7-36.3,105.5h13.2c5.5,0,10.2,1.9,14,5.8L461.2,410.1z M216.4,321.9c19.2,0,37-4.7,53.2-14
				s29-22.1,38.3-38.3s14-33.9,14-53.2s-4.7-37-14-53.2s-22.1-29-38.3-38.3s-33.9-14-53.2-14s-37,4.7-53.2,14s-29,22.1-38.3,38.3
				s-14,33.9-14,53.2s4.7,37,14,53.2s22.1,29,38.3,38.3S197.2,321.9,216.4,321.9z"/>
		</g>
	</g>
</g>
<g id="Livello_2">
</g>
</svg>
