<?xml version="1.0" encoding="utf-8"?>
<!-- Generator: Adobe Illustrator 24.2.3, SVG Export Plug-In . SVG Version: 6.00 Build 0)  -->
<svg version="1.1" id="Layer_1" xmlns="http://www.w3.org/2000/svg" xmlns:xlink="http://www.w3.org/1999/xlink" x="0px" y="0px"
	 viewBox="0 0 448 512" style="enable-background:new 0 0 448 512;" xml:space="preserve">
<style type="text/css">
	.st0{fill:#215AA8;}
</style>
<path class="st0" d="M400,0H48C21.5,0,0,21.5,0,48v416c0,26.5,21.5,48,48,48h352c26.5,0,48-21.5,48-48V48C448,21.5,426.5,0,400,0z
	 M224,480c-17.7,0-32-14.3-32-32s14.3-32,32-32s32,14.3,32,32S241.7,480,224,480z M400,372c0,6.6-5.4,12-12,12H60
	c-6.6,0-12-5.4-12-12V60c0-6.6,5.4-12,12-12h328c6.6,0,12,5.4,12,12V372z"/>
</svg>
