<?xml version="1.0" encoding="utf-8"?>
<!-- Generator: Adobe Illustrator 24.2.3, SVG Export Plug-In . SVG Version: 6.00 Build 0)  -->
<svg version="1.1" id="Layer_1" xmlns="http://www.w3.org/2000/svg" xmlns:xlink="http://www.w3.org/1999/xlink" x="0px" y="0px"
	 viewBox="0 0 512 512" style="enable-background:new 0 0 512 512;" xml:space="preserve">
<style type="text/css">
	.st0{fill:#215AA8;}
</style>
<path class="st0" d="M488,351H24c-13.3,0-24,10.7-24,24v80c0,13.3,10.7,24,24,24h464c13.3,0,24-10.7,24-24v-80
	C512,361.7,501.3,351,488,351z M464,431H289v-32h175V431z M488,191H24c-13.3,0-24,10.7-24,24v80c0,13.3,10.7,24,24,24h464
	c13.3,0,24-10.7,24-24v-80C512,201.7,501.3,191,488,191z M464,271H161v-32h303V271z M488,31H24C10.7,31,0,41.7,0,55v80
	c0,13.3,10.7,24,24,24h464c13.3,0,24-10.7,24-24V55C512,41.7,501.3,31,488,31z M464,111H353V79h111V111z"/>
</svg>
