<?xml version="1.0" encoding="utf-8"?>
<!-- Generator: Adobe Illustrator 24.2.3, SVG Export Plug-In . SVG Version: 6.00 Build 0)  -->
<svg version="1.1" id="Layer_1" xmlns="http://www.w3.org/2000/svg" xmlns:xlink="http://www.w3.org/1999/xlink" x="0px" y="0px"
	 viewBox="0 0 512 512" style="enable-background:new 0 0 512 512;" xml:space="preserve">
<style type="text/css">
	.st0{fill:#215AA8;}
</style>
<path class="st0" d="M507.7,109.1c-2.2-9-13.5-12.1-20.1-5.5l-74.4,74.4l-67.9-11.3l-11.3-67.9l74.4-74.4c6.6-6.6,3.4-17.9-5.7-20.2
	c-47.4-11.7-99.6,0.9-136.6,37.9c-39.6,39.6-50.6,97.1-34.1,147.2L18.7,402.8c-25,25-25,65.5,0,90.5s65.5,25,90.5,0L322.5,280
	c50.1,16.7,107.5,5.7,147.4-34.2C506.9,208.8,519.5,156.5,507.7,109.1z M64,472c-13.3,0-24-10.8-24-24c0-13.3,10.8-24,24-24
	s24,10.7,24,24C88,461.3,77.3,472,64,472z"/>
</svg>
