<svg xmlns="http://www.w3.org/2000/svg" viewBox="0 0 512 512"><g id="Livello_5" data-name="Livello 5"><path d="M506.14,477.85,361.69,333.4C427.5,253.32,423,134.46,348.24,59.67c-79.56-79.56-209-79.56-288.57,0s-79.56,209,0,288.57C134.44,423,253.29,427.53,333.4,361.69L477.85,506.14a20,20,0,0,0,28.29-28.29ZM320,320c-64,64-168,64-232,0s-64-168,0-232,168-64,232,0S383.91,256,320,320Z"/><path d="M301.9,184H224V106a20,20,0,0,0-40,0V184H106a20,20,0,0,0,0,40H184V301.9a20,20,0,0,0,40,0V224H301.9a20,20,0,0,0,0-40Z"/></g></svg>